# AST/ASF file generated using VICON BodyLanguage
# -----------------------------------------------
:version 1.10
:name VICON
:units
  mass 1.0
  length 0.45
  angle deg
:documentation
   .ast/.asf automatically generated from VICON data using
   VICON BodyBuilder and BodyLanguage model FoxedUp or BRILLIANT.MOD
:root
   order TX TY TZ RX RY RZ
   axis XYZ
   position 0 0 0  
   orientation 0 0 0 
:bonedata
  begin
     id 1 
     name lhipjoint
     direction 0.547975 -0.797114 0.253638 
     length 2.36201 
     axis 0 0 0  XYZ
  end
  begin
     id 2 
     name lfemur
     direction 0.34202 -0.939693 0  
     length 7.69075  
     axis 0 0 20  XYZ
    dof rx ry rz
    limits (-160.0 20.0)
           (-70.0 70.0)
           (-60.0 70.0)
  end
  begin
     id 3 
     name ltibia
     direction 0.34202 -0.939693 0   
     length 7.91399   
     axis 0 0 20   XYZ
    dof rx
    limits (-10.0 170.0)
  end
  begin
     id 4 
     name lfoot
     direction 0.0705293 -0.193778 0.978507   
     length 2.13618   
     axis -90 7.62852e-016 20   XYZ
    dof rx rz
    limits (-45.0 90.0)
           (-70.0 20.0)
  end
  begin
     id 5 
     name ltoes
     direction 1.53592e-011 -4.21925e-011 1   
     length 1.07518   
     axis -90 7.62852e-016 20   XYZ
    dof rx
    limits (-90.0 20.0)
  end
  begin
     id 6 
     name rhipjoint
     direction -0.57 -0.782963 0.249136   
     length 2.4047  
     axis 0 0 0  XYZ 
  end
  begin
     id 7 
     name rfemur
     direction -0.34202 -0.939693 0   
     length 7.51486   
     axis 0 0 -20   XYZ
    dof rx ry rz
    limits (-160.0 20.0)
           (-70.0 70.0)
           (-70.0 60.0)
  end
  begin
     id 8 
     name rtibia
     direction -0.34202 -0.939693 0   
     length 8.08317   
     axis 0 0 -20   XYZ
    dof rx
    limits (-10.0 170.0)
 end
 begin
     id 9 
     name rfoot
     direction -0.104954 -0.281256 0.953876   
     length 2.30343  
     axis -90 -7.62852e-016 -20   XYZ
    dof rx rz
    limits (-45.0 90.0)
           (-20.0 70.0)
  end
  begin
     id 10 
     name rtoes
     direction -1.53556e-011 -4.21922e-011 1   
     length 1.14803   
     axis -90 -7.62852e-016 -20   XYZ
    dof rx
    limits (-90.0 20.0)
  end
  begin
     id 11 
     name lowerback
     direction -0.0152855 0.99353 -0.11254   
     length 2.05311   
     axis 0 0 0   XYZ
    dof rx ry rz
    limits (-20.0 45.0)
           (-30.0 30.0)
           (-30.0 30.0)
  end
  begin
     id 12 
     name upperback
     direction -0.00157509 0.999443 -0.033332   
     length 2.06353   
     axis 0 0 0   XYZ
    dof rx ry rz
    limits (-20.0 45.0)
           (-30.0 30.0)
           (-30.0 30.0)
  end
  begin
     id 13 
     name thorax
     direction 0.00577788 0.999804 0.0189484   
     length 2.08472   
     axis 0 0 0   XYZ
    dof rx ry rz
    limits (-20.0 45.0)
           (-30.0 30.0)
           (-30.0 30.0)
  end
  begin
     id 14 
     name lowerneck
     direction -1.09301e-005 0.994719 0.10264   
     length 1.76249   
     axis 0 0 0   XYZ
    dof rx ry rz
    limits (-20.0 45.0)
           (-30.0 30.0)
           (-30.0 30.0)
  end
  begin
     id 15 
     name upperneck
     direction 0.0495018 0.988526 -0.142706   
     length 1.77897   
     axis 0 0 0   XYZ
    dof rx ry rz
    limits (-20.0 45.0)
           (-30.0 30.0)
           (-30.0 30.0)
  end
  begin
     id 16
     name head
     direction 0.0142736 0.998114 -0.0597101  
     length 1.78934  
     axis 0 0 0   XYZ
    dof rx ry rz
    limits (-20.0 45.0)
           (-30.0 30.0)
           (-30.0 30.0)
  end
  begin
     id 17 
     name lclavicle
     direction 0.918111 0.396107 -0.0130883  
     length 3.37276  
     axis 0 0 0   XYZ
    dof ry rz
    limits (-20.0 10.0)
           (0.0 20.0)
  end
  begin
     id 18 
     name lhumerus
     direction 1 -4.48975e-011 -3.26108e-027   
     length 5.34298   
     axis 180 -30 -90   XYZ
    dof rx ry rz
    limits (-60.0 90.0)
           (-90.0 90.0)
           (-90.0 90.0)
  end
  begin
     id 19
     name lradius
     direction 1 -4.48964e-011 -8.84413e-028   
     length 3.67262   
     axis 180 -30 -90   XYZ
    dof rx
    limits (-10.0 170.0)
  end
  begin
     id 20
     name lwrist
     direction 1 -4.48991e-011 -1.24264e-027   
     length 1.83631   
     axis -2.17013e-015 90 90   XYZ
    dof ry
    limits (-180.0 0.0)
 end
  begin
     id 21 
     name lhand
     direction 1 -4.48855e-011 -2.48528e-027   
     length 0.599298   
     axis 1.58582e-015 90 90   XYZ
    dof rx rz
    limits (-90.0 90.0)
           (-45.0 45.0)
  end
  begin
     id 22 
     name lfingers
     direction 1 -4.48811e-011 -4.97056e-027   
     length 0.48317   
     axis 3.17164e-015 90 90   XYZ
    dof rx
    limits (0.0 90.0)
  end
  begin
     id 23
     name lthumb
     direction 0.707107 -6.34882e-011 0.707107   
     length 0.693738   
     axis -90 45 2.85299e-015   XYZ
    dof rx rz
    limits (-45.0 45.0)
           (-45.0 45.0)
  end
  begin
     id 24 
     name rclavicle
     direction -0.920511 0.384752 -0.0680135   
     length 3.43787  
     axis 0 0 0   XYZ 
    dof ry rz
    limits (-10.0 20.0)
           (-20.0 0.0)
  end
  begin
     id 25 
     name rhumerus
     direction -0.999976 -0.00330524 0.00603274  
     length 5.5498   
     axis 180 30 90   XYZ
    dof rx ry rz
    limits (-90.0 60.0)
           (-90.0 90.0)
           (-90.0 90.0)
  end
  begin
     id 26 
     name rradius
     direction -1 -4.48967e-011 8.62438e-027   
     length 3.69401   
     axis 180 30 90   XYZ
    dof rx
    limits (-10.0 170.0)
  end
  begin
     id 27 
     name rwrist
     direction -1 -4.4897e-011 9.54866e-027   
     length 1.84701   
     axis -7.69462e-015 -90 -90   XYZ
    dof ry
    limits (-180.0 0.0)
  end
  begin
     id 28
     name rhand
     direction -1 -4.48982e-011 1.90973e-026   
     length 0.638113   
     axis -1.21857e-014 -90 -90   XYZ
    dof rx rz
    limits (-90.0 90.0)
           (-45.0 45.0)
  end
  begin
     id 29
     name rfingers
     direction -1 -4.48936e-011 3.81946e-026   
     length 0.514463   
     axis -2.43714e-014 -90 -90   XYZ
    dof rx
    limits (0.0 90.0)
  end
  begin
     id 30
     name rthumb
     direction -0.707107 -6.34942e-011 0.707107   
     length 0.738669   
     axis -90 -45 -2.85299e-015   XYZ
    dof rx rz
    limits (-45.0 45.0)
           (-45.0 45.0)
  end
:hierarchy
  begin
    root lhipjoint rhipjoint lowerback
    lhipjoint lfemur
    lfemur ltibia
    ltibia lfoot
    lfoot ltoes
    rhipjoint rfemur
    rfemur rtibia
    rtibia rfoot
    rfoot rtoes
    lowerback upperback
    upperback thorax
    thorax lowerneck lclavicle rclavicle
    lowerneck upperneck
    upperneck head
    lclavicle lhumerus
    lhumerus lradius
    lradius lwrist
    lwrist lhand lthumb
    lhand lfingers
    rclavicle rhumerus
    rhumerus rradius
    rradius rwrist
    rwrist rhand rthumb
    rhand rfingers
  end

#!OML:ASF F:\twosubjects\two\Thursday\Session 1\Rory.ASF
:FULLY-SPECIFIED
:DEGREES
95
root 9.17116 18.4846 -6.08592 7.90983 -2.66483 0.633581
lowerback 3.76559 -0.217069 0.93153
upperback 3.11648 -0.249242 -3.37426
thorax 1.0737 -0.0756156 -3.9922
lowerneck -9.00248 -2.2514 -2.48009
upperneck 14.4909 -3.27236 3.78613
head 5.96897 -1.44089 1.34799
rclavicle -4.17448e-015 4.77083e-015
rhumerus 45.3582 2.25373 -85.6351
rradius 41.0793
rwrist -12.1457
rhand -42.3758 20.6012
rfingers 7.12502
rthumb -15.2572 -8.81611
lclavicle -4.17448e-015 4.77083e-015
lhumerus 45.5509 -8.54399 70.9433
lradius 43.5183
lwrist 6.63244
lhand -26.5741 52.4311
lfingers 7.12502
lthumb -0.00878473 -277.589
rfemur -9.4864 3.63541 22.7724
rtibia 21.9125
rfoot -16.1547 -7.62872
rtoes -2.92944
lfemur -26.576 -0.52347 -18.9227
ltibia 20.0522
lfoot -4.56613 4.9377
ltoes 5.18629
96
root 9.17998 18.4931 -6.00602 8.14238 -2.79705 0.316693
lowerback 3.89733 -0.199209 0.983024
upperback 3.1869 -0.223739 -3.35622
thorax 1.07461 -0.0613638 -4.00341
lowerneck -9.04974 -2.1789 -2.27856
upperneck 14.1643 -3.18249 3.71943
head 5.86728 -1.39357 1.30062
rclavicle 7.7526e-015 -9.54166e-015
rhumerus 45.2691 3.49668 -84.8053
rradius 41.9173
rwrist -13.0489
rhand -45.3116 21.81
rfingers 7.12502
rthumb -18.0834 -7.3694
lclavicle 7.7526e-015 -9.54166e-015
lhumerus 45.4889 -9.19416 70.457
lradius 44.3441
lwrist 6.20154
lhand -27.5214 55.4178
lfingers 7.12502
lthumb -0.923705 -274.604
rfemur -9.34914 4.12925 23.1566
rtibia 21.7236
rfoot -15.932 -8.32245
rtoes -4.67065
lfemur -26.7441 -0.269714 -18.6375
ltibia 20.4627
lfoot -4.82208 4.46879
ltoes 4.89246
97
root 9.19547 18.5034 -5.93185 8.56095 -2.96709 -0.23909
lowerback 3.92312 -0.0770749 1.32666
upperback 3.22947 -0.0518965 -3.17699
thorax 1.11751 0.0298883 -4.01708
lowerneck -9.39112 -2.17053 -2.44823
upperneck 14.0387 -3.14477 3.78129
head 5.88899 -1.3765 1.3479
rclavicle 8.34896e-015 -1.03368e-014
rhumerus 45.0158 4.0757 -84.2038
rradius 43.0216
rwrist -13.4604
rhand -49.1786 23.203
rfingers 7.12502
rthumb -21.8006 -5.58909
lclavicle 8.34896e-015 -1.03368e-014
lhumerus 45.5737 -9.64187 70.5889
lradius 45.1437
lwrist 5.66317
lhand -27.0661 59.6807
lfingers 7.12502
lthumb -0.483886 -270.34
rfemur -9.51181 4.6491 23.7386
rtibia 21.6623
rfoot -15.8092 -8.76669
rtoes -5.10091
lfemur -26.9875 -0.291853 -18.0066
ltibia 20.6617
lfoot -4.90812 4.38601
ltoes 7.17553
98
root 9.22664 18.5188 -5.8528 9.21191 -3.16711 -0.418209
lowerback 3.57825 0.0941293 1.58306
upperback 3.18036 0.182178 -3.16758
thorax 1.27985 0.153382 -4.15834
lowerneck -9.35854 -2.21411 -2.64823
upperneck 13.6691 -3.17596 3.87915
head 5.77312 -1.3978 1.40953
rclavicle 8.54774e-015 -1.19271e-014
rhumerus 44.4031 3.75549 -84.6089
rradius 44.4691
rwrist -12.6815
rhand -51.4463 24.3035
rfingers 7.12502
rthumb -23.9766 -4.21924
lclavicle 8.54774e-015 -1.19271e-014
lhumerus 45.3759 -9.79936 71.485
lradius 46.3488
lwrist 4.87371
lhand -26.7792 64.2114
lfingers 7.12502
lthumb -0.206858 -94.191
rfemur -10.092 4.52916 23.7695
rtibia 21.7641
rfoot -15.6089 -8.56738
rtoes -6.16787
lfemur -27.3297 -0.675499 -17.7822
ltibia 20.6292
lfoot -4.99532 4.83513
ltoes 9.85041
99
root 9.26051 18.5385 -5.75738 9.52449 -3.41883 0.165216
lowerback 3.2696 0.210472 1.16934
upperback 3.17671 0.33149 -3.47985
thorax 1.46091 0.226534 -4.25076
lowerneck -8.99361 -2.31507 -2.66066
upperneck 13.1933 -3.31874 3.99372
head 5.56892 -1.46763 1.44019
rclavicle -5.1684e-015 1.43125e-014
rhumerus 43.7419 3.08653 -85.725
rradius 45.9426
rwrist -11.6468
rhand -51.9186 24.8533
rfingers 7.12502
rthumb -24.4295 -3.60912
lclavicle -5.1684e-015 1.43125e-014
lhumerus 44.671 -9.60146 72.6815
lradius 47.9879
lwrist 3.95315
lhand -27.9884 65.3179
lfingers 7.12502
lthumb -1.37467 -95.2932
rfemur -10.2958 4.2158 22.9315
rtibia 22.0106
rfoot -15.6063 -8.19423
rtoes -8.46424
lfemur -27.1166 -0.828723 -18.5594
ltibia 20.3264
lfoot -4.99719 4.98277
ltoes 10.3842
100
root 9.29537 18.5563 -5.6584 9.49431 -3.75449 1.09406
lowerback 3.28001 0.19563 0.298736
upperback 3.30788 0.301199 -3.87772
thorax 1.58524 0.201792 -4.17122
lowerneck -9.25989 -2.24479 -2.4622
upperneck 13.1634 -3.24003 3.94137
head 5.59837 -1.42037 1.39471
rclavicle 4.37326e-015 1.90833e-014
rhumerus 43.2815 2.83071 -86.6211
rradius 47.5538
rwrist -11.5708
rhand -52.173 25.3662
rfingers 7.12502
rthumb -24.6734 -3.06312
lclavicle 4.37326e-015 1.90833e-014
lhumerus 43.7968 -8.89992 73.6725
lradius 49.9131
lwrist 3.65442
lhand -29.5387 64.1819
lfingers 7.12502
lthumb -2.87197 -94.1423
rfemur -10.0409 4.20062 21.7108
rtibia 22.2721
rfoot -15.8887 -7.94733
rtoes -9.8725
lfemur -26.4864 -0.522357 -19.9214
ltibia 19.8997
lfoot -4.69456 4.63822
ltoes 9.63294
101
root 9.31811 18.5703 -5.54978 9.26904 -4.07946 1.97484
lowerback 3.35686 0.199342 -0.759231
upperback 3.48842 0.29286 -4.19435
thorax 1.72438 0.182005 -3.9027
lowerneck -9.28631 -2.093 -2.15745
upperneck 12.9813 -3.05941 3.84154
head 5.53388 -1.32598 1.32724
rclavicle -1.19271e-015 -1.03368e-014
rhumerus 42.7104 2.75898 -86.9597
rradius 49.3151
rwrist -12.4975
rhand -52.1231 25.0744
rfingers 7.12502
rthumb -24.6255 -3.3614
lclavicle -1.19271e-015 -1.03368e-014
lhumerus 43.042 -8.46183 74.0725
lradius 51.7843
lwrist 4.61017
lhand -30.3412 63.5109
lfingers 7.12502
lthumb -3.64698 -93.4595
rfemur -9.47459 4.11387 20.6125
rtibia 22.3711
rfoot -16.0634 -7.65695
rtoes -9.42576
lfemur -25.7357 -0.0717704 -21.2157
ltibia 19.6603
lfoot -4.42994 4.13659
ltoes 8.9734
102
root 9.33811 18.5808 -5.46326 9.38297 -4.38033 1.84445
lowerback 3.31095 0.36843 -0.788799
upperback 3.53986 0.521182 -4.20836
thorax 1.8176 0.296746 -3.90451
lowerneck -8.71059 -2.11428 -2.07028
upperneck 12.3835 -3.09051 3.86025
head 5.24988 -1.34783 1.32221
rclavicle 2.38542e-015 -4.69132e-014
rhumerus 42.098 2.30001 -86.9051
rradius 50.9025
rwrist -13.5174
rhand -51.726 24.7844
rfingers 7.12502
rthumb -24.2448 -3.70283
lclavicle 2.38542e-015 -4.69132e-014
lhumerus 42.6821 -8.52985 74.1416
lradius 53.0938
lwrist 6.10268
lhand -30.7164 63.4116
lfingers 7.12502
lthumb -4.00925 -93.3536
rfemur -9.37869 4.23531 20.6476
rtibia 22.3825
rfoot -15.8491 -7.56128
rtoes -8.96626
lfemur -25.5509 -0.00184103 -21.1542
ltibia 19.6647
lfoot -4.36904 4.23506
ltoes 8.66453
103
root 9.35685 18.5848 -5.413 9.8594 -4.32729 0.764142
lowerback 3.4963 0.406176 0.185992
upperback 3.41161 0.578254 -3.91533
thorax 1.59149 0.339645 -4.15333
lowerneck -8.27445 -2.11493 -2.28878
upperneck 11.9961 -3.06565 3.9487
head 5.05969 -1.34838 1.39171
rclavicle 1.19271e-015 -3.97569e-015
rhumerus 41.6233 1.99067 -86.7781
rradius 52.1219
rwrist -13.9123
rhand -51.6093 25.1545
rfingers 7.12502
rthumb -24.1329 -3.34758
lclavicle 1.19271e-015 -3.97569e-015
lhumerus 42.3412 -8.43643 74.092
lradius 54.091
lwrist 7.24282
lhand -30.6303 64.5411
lfingers 7.12502
lthumb -3.92615 -94.4847
rfemur -9.68181 5.2206 21.8079
rtibia 22.3547
rfoot -15.5036 -8.3608
rtoes -8.6868
lfemur -25.9901 -0.0168748 -19.9776
ltibia 19.8347
lfoot -4.29853 4.25484
ltoes 8.11517
